<svg width="23" height="17" viewBox="0 0 23 17" fill="none" xmlns="http://www.w3.org/2000/svg">
<path d="M20.4666 0.355469H6.7999C6.17123 0.355469 5.67923 0.674358 5.35123 1.15725L0.422119 8.55547L5.35123 15.9446C5.67923 16.4275 6.17123 16.7555 6.7999 16.7555H20.4666C21.4688 16.7555 22.2888 15.9355 22.2888 14.9332V2.17769C22.2888 1.17547 21.4688 0.355469 20.4666 0.355469ZM20.4666 14.9332H6.86367L2.60879 8.55547L6.85456 2.17769H20.4666V14.9332ZM9.90679 13.111L13.1777 9.84014L16.4486 13.111L17.7332 11.8264L14.4623 8.55547L17.7332 5.28458L16.4486 3.99991L13.1777 7.2708L9.90679 3.99991L8.62212 5.28458L11.893 8.55547L8.62212 11.8264L9.90679 13.111Z" fill="#7C7D85"/>
</svg>
